# xmcd
#
# Track frame offsets:
#	150
#	9557
#	24040
#	44022
#	57987
#	74793
#	89974
#	109210
#	119736
#	135188
#	147787
#	164400
#	177018
#	191982
#
# Disc length: 2753 seconds
#
# Revision: 0
# Processed by: cddbd v1.5.2PL0 Copyright (c) Steve Scherf et al.
# Submitted via: EZCDAudioConverter 1.0.4.1
#
DISCID=d10abf0e
DTITLE=Kay the Aquanaut and Maki - Station Wagon
DYEAR=2015
DGENRE=
TTITLE0=Sound of Silence
TTITLE1=Smoke and Coffee
TTITLE2=Galileo
TTITLE3=Station Wagon
TTITLE4=Rolling on 
TTITLE5=Outta Body
TTITLE6=Lighters
TTITLE7=The Forms
TTITLE8=Another Wack Year of Democracy
TTITLE9=NAP
TTITLE10=Nevermore
TTITLE11=White Moon
TTITLE12=Post-Modern Rasputin
TTITLE13=Red and White Leaves
EXTD=
EXTT0=
EXTT1=
EXTT2=
EXTT3=
EXTT4=
EXTT5=
EXTT6=
EXTT7=
EXTT8=
EXTT9=
EXTT10=
EXTT11=
EXTT12=
EXTT13=
PLAYORDER=
